<?xml version="1.0" encoding="UTF-8"?>
<svg version="1.1" xmlns="http://www.w3.org/2000/svg" width="1200" height="255">
<path d="M0 0 C23.43 0 46.86 0 71 0 C76.28 10.23 81.56 20.46 87 31 C90.7827321 38.20645912 90.7827321 38.20645912 94.578125 45.40625 C97.40568365 50.76026289 100.2022211 56.1303827 103 61.5 C107.05059205 69.27241062 111.11841206 77.03536177 115.20654297 84.78808594 C119.04644777 92.07547414 122.852226 99.38053752 126.65332031 106.68823242 C128.92363538 111.04683697 131.20395953 115.39835713 133.5390625 119.72265625 C133.91659668 120.42229492 134.29413086 121.12193359 134.68310547 121.84277344 C135.37362797 123.11763282 136.06773458 124.39056013 136.76611328 125.66113281 C139 129.78208179 139 129.78208179 139 132 C141.55645938 129.66251643 143.21725888 127.19875066 144.9765625 124.22265625 C145.55583496 123.24901123 146.13510742 122.27536621 146.73193359 121.2722168 C147.35664551 120.21301025 147.98135742 119.15380371 148.625 118.0625 C149.63441261 116.3653896 150.64384682 114.66829175 151.65432739 112.97181702 C152.35992946 111.78714591 153.0650604 110.60219408 153.76974487 109.41697693 C157.59771296 102.98254443 161.48390868 96.58388676 165.375 90.1875 C166.09005348 89.01117764 166.80505972 87.83482656 167.52001953 86.65844727 C168.96065872 84.28824183 170.40161475 81.91822943 171.84277344 79.54833984 C174.69147307 74.86332163 177.53675271 70.17622859 180.38183594 65.48901367 C181.78805806 63.17235702 183.19499658 60.85613786 184.60253906 58.5402832 C187.89122002 53.12832162 191.17525031 47.71369855 194.44329834 42.28924561 C195.96847442 39.75832291 197.49623005 37.22896191 199.02416992 34.69970703 C199.74403986 33.50646952 200.46267893 32.31248833 201.17993164 31.11767578 C217.57898623 3.80284182 217.57898623 3.80284182 231 0 C234.03790721 -0.38925487 237.02669054 -0.39379767 240.08630371 -0.36076355 C240.96701931 -0.36332682 241.84773492 -0.3658901 242.75513887 -0.36853105 C245.68786067 -0.3734479 248.6200605 -0.35701076 251.55273438 -0.34057617 C253.66226184 -0.33972945 255.77179019 -0.34020593 257.88131714 -0.34190369 C263.59561501 -0.34276328 269.30972339 -0.32514308 275.02397728 -0.30418181 C281.00039073 -0.28540922 286.97680868 -0.28366411 292.95324707 -0.28010559 C304.26488243 -0.27078686 315.57643065 -0.24617533 326.88802767 -0.21605712 C339.76824607 -0.18250783 352.64846867 -0.16602576 365.5287199 -0.15097082 C392.01919488 -0.11962568 418.50959255 -0.06686845 445 0 C446.04797573 3.14392718 446.12682255 5.34927206 446.12939453 8.64892578 C446.13254669 9.80667511 446.13569885 10.96442444 446.13894653 12.15725708 C446.13591019 14.03234451 446.13591019 14.03234451 446.1328125 15.9453125 C446.13424759 17.86644363 446.13424759 17.86644363 446.13571167 19.8263855 C446.13718512 22.53482267 446.13504472 25.24322683 446.13037109 27.95166016 C446.12466259 31.42997412 446.12796209 34.90821112 446.13394356 38.38652229 C446.13841554 41.69779196 446.13528973 45.00904065 446.1328125 48.3203125 C446.13483673 49.57441925 446.13686096 50.828526 446.13894653 52.12063599 C446.13579437 53.27208099 446.13264221 54.423526 446.12939453 55.60986328 C446.12820114 57.1385051 446.12820114 57.1385051 446.12698364 58.69802856 C446 61 446 61 445 62 C422.23 62 399.46 62 376 62 C376 116.45 376 170.9 376 227 C355.21 227 334.42 227 313 227 C313 172.55 313 118.1 313 62 C294.52 62.33 276.04 62.66 257 63 C247.64842414 72.57314483 247.64842414 72.57314483 242.87890625 83.05078125 C240.38341664 90.49606189 236.84596705 96.70235693 232.60177612 103.27719116 C230.76343707 106.15173773 229.01143023 109.07794435 227.25 112 C226.54207842 113.16691656 225.83374502 114.33358338 225.125 115.5 C224.774375 116.0775 224.42375 116.655 224.0625 117.25 C203.875 150.5 203.875 150.5 202.81262207 152.24978638 C202.10386697 153.4171561 201.39512675 154.58453485 200.68640137 155.75192261 C198.92214255 158.6579066 197.15763048 161.5637362 195.39257812 164.46923828 C191.7455266 170.47340947 188.10336512 176.48047875 184.46875 182.4921875 C180.91995246 188.36160337 177.35615968 194.22163537 173.78125 200.07519531 C172.26026099 202.57265259 170.75327286 205.07780923 169.25 207.5859375 C164.24589074 215.81823492 158.17514356 224.62277216 148.4921875 227.59765625 C137.70379642 229.33935575 127.99793341 228.89465843 118.89453125 222.52734375 C109.66725085 215.20438013 105.09383211 203.5124343 99.85409546 193.22918701 C97.97344223 189.53857595 96.08146018 185.85377155 94.19140625 182.16796875 C93.82284012 181.44841003 93.45427399 180.72885132 93.07453918 179.98748779 C90.3128236 174.59859584 87.51869189 169.22775931 84.6875 163.875 C81.10248195 157.09493724 77.54373722 150.30174319 74 143.5 C70.36961875 136.53343743 66.72767791 129.57331774 63.0625 122.625 C58.61329394 114.18884305 54.21437208 105.72692038 49.81884766 97.26269531 C46.14769698 90.19705412 42.45323844 83.14425008 38.73828125 76.1015625 C35.47421845 69.91037241 32.23450225 63.70667833 29 57.5 C25.34785188 50.49227788 21.68473093 43.49064383 18 36.5 C17.19914661 34.97790254 16.39836656 33.45576649 15.59765625 31.93359375 C14.20706797 29.29033128 12.81402589 26.64842229 11.41748047 24.00830078 C9.75355173 20.86175953 8.09519968 17.7123265 6.4375 14.5625 C5.91220703 13.5725 5.38691406 12.5825 4.84570312 11.5625 C4.35908203 10.63566406 3.87246094 9.70882813 3.37109375 8.75390625 C2.93724365 7.93220947 2.50339355 7.1105127 2.05639648 6.26391602 C1 4 1 4 0 0 Z " fill="#156CA5" transform="translate(746,15)"/>
<path d="M0 0 C20.79 0 41.58 0 63 0 C63.04517186 25.77367169 63.08200377 51.54731126 63.10362434 77.3210125 C63.11393061 89.28856703 63.12797855 101.2560952 63.15087891 113.22363281 C63.17083263 123.65627438 63.18372116 134.08889685 63.18817699 144.52155697 C63.190781 150.04396563 63.1968881 155.56631966 63.21146011 161.08871078 C63.22507531 166.29083944 63.22921467 171.49289115 63.22621536 176.69503593 C63.22676376 178.60010764 63.23071766 180.50518202 63.23841095 182.41023827 C63.34096557 209.12479903 63.34096557 209.12479903 53.109375 220.01171875 C45.66386498 227.00287678 39.02221767 228.50322244 28.93359375 228.41992188 C17.61488719 228.00659832 11.14184734 222.36722052 3.59375 214.48828125 C-0.56085329 209.99387244 -4.53414772 205.38960157 -8.375 200.625 C-12.24283546 195.82779065 -16.35109495 191.32795793 -20.56030273 186.83422852 C-23.65750846 183.50880245 -26.59607067 180.11298325 -29.4375 176.5625 C-32.94643139 172.18748028 -36.65844505 168.07979091 -40.5 164 C-45.1261859 159.08691885 -49.47270687 154.04878279 -53.69140625 148.77734375 C-56.83171426 144.99940975 -60.18289349 141.43886099 -63.54125977 137.85546875 C-67.59396757 133.50552335 -71.36445105 128.99742434 -75.0625 124.33984375 C-76.9090919 122.1097862 -78.95267756 120.04732244 -81 118 C-81.33 153.97 -81.66 189.94 -82 227 C-102.79 227 -123.58 227 -145 227 C-145.04517377 201.74786353 -145.08200489 176.49575985 -145.10362434 151.24359322 C-145.11393013 139.51817502 -145.12797715 127.79278373 -145.15087891 116.06738281 C-145.17083411 105.84569209 -145.18372151 95.62402087 -145.18817699 85.40231121 C-145.19078075 79.99168475 -145.19688626 74.58111407 -145.21146011 69.17050552 C-145.22507765 64.07343576 -145.22921421 58.97644452 -145.22621536 53.87935829 C-145.22676366 52.01298788 -145.23071616 50.14661472 -145.23841095 48.28026009 C-145.34671297 20.64650893 -145.34671297 20.64650893 -135.375 9.75 C-128.09066956 2.97263761 -120.60612406 1.39418295 -110.83203125 1.52905273 C-97.93681797 2.1067019 -90.74977042 9.88877059 -82.4375 18.9375 C-80.61431287 20.94914379 -78.80611486 22.97289526 -77 25 C-76.39414062 25.67933594 -75.78828125 26.35867187 -75.1640625 27.05859375 C-72.49683978 30.08361464 -69.87419165 33.14586821 -67.2578125 36.21484375 C-66.23455265 37.41421409 -65.21110963 38.61342817 -64.1875 39.8125 C-63.67026367 40.41860107 -63.15302734 41.02470215 -62.62011719 41.64916992 C-59.4151062 45.39051541 -56.14798497 49.0610693 -52.8125 52.6875 C-49.64169258 56.14015696 -46.61964969 59.65530966 -43.6875 63.3125 C-39.61251555 68.36836567 -35.24768006 73.08187223 -30.79980469 77.80566406 C-26.76457628 82.11446728 -23.01654358 86.58869552 -19.328125 91.19921875 C-16.08371142 95.10231362 -12.63743365 98.80290333 -9.15991211 102.49829102 C-6.26951858 105.57806016 -3.64914429 108.68856964 -1 112 C-0.67 75.04 -0.34 38.08 0 0 Z " fill="#294396" transform="translate(438,15)"/>
<path d="M0 0 C20.46 0 40.92 0 62 0 C62 54.78 62 109.56 62 166 C88.73 166 115.46 166 143 166 C143 186.46 143 206.92 143 228 C113.37260061 228.16065467 113.37260061 228.16065467 98.71160793 228.20101547 C90.79046954 228.22315939 82.8695001 228.25124853 74.94848633 228.30175781 C68.67590665 228.34173645 62.40345462 228.36745896 56.13075107 228.37635398 C52.81201292 228.38155027 49.49372309 228.39581324 46.17508125 228.42292023 C42.46228686 228.45203548 38.75024405 228.45595242 35.03735352 228.45410156 C33.94762238 228.46848267 32.85789124 228.48286377 31.73513794 228.49768066 C21.83566542 228.44442229 14.93909851 225.52161968 7.72265625 218.79296875 C1.33572589 212.14534735 -0.30767152 205.49018662 -0.24050903 196.49588013 C-0.24221788 195.65362534 -0.24392673 194.81137056 -0.24568737 193.94359291 C-0.24897438 191.12913739 -0.23799156 188.31492174 -0.22705078 185.50048828 C-0.2264865 183.47992458 -0.22680356 181.45936046 -0.22793579 179.438797 C-0.22850963 173.95788618 -0.21675017 168.4770629 -0.20278788 162.99617243 C-0.1902858 157.26664836 -0.18911043 151.53712228 -0.18673706 145.80758667 C-0.18052076 134.95985635 -0.16410789 124.11216634 -0.14403808 113.26445377 C-0.12168377 100.91389019 -0.11068682 88.56332468 -0.10064721 76.2127459 C-0.07974181 50.80846977 -0.04306366 25.4042489 0 0 Z " fill="#2F2C86" transform="translate(9,15)"/>
<path d="M0 0 C20.79 0 41.58 0 63 0 C63 74.91 63 149.82 63 227 C42.21 227 21.42 227 0 227 C0 152.09 0 77.18 0 0 Z " fill="#2C378E" transform="translate(189,15)"/>
<path d="M0 0 C-0.81588133 32.22731261 -12.28387593 61.18639277 -35.4855957 84.01953125 C-56.52166857 103.90020842 -85.02778207 114.4467898 -113.75 114.3125 C-114.97847656 114.30831055 -116.20695313 114.30412109 -117.47265625 114.29980469 C-130.41191332 114.13925952 -144.20295292 112.80252587 -156 107 C-157 104 -157 104 -155.97943115 101.36431885 C-155.44191223 100.30340027 -154.90439331 99.24248169 -154.35058594 98.14941406 C-154.05628693 97.5616922 -153.76198792 96.97397034 -153.45877075 96.36843872 C-152.47657796 94.41267416 -151.48045007 92.46435091 -150.484375 90.515625 C-149.79091197 89.14058893 -149.09840287 87.7650714 -148.40679932 86.38909912 C-146.571775 82.74388238 -144.72524198 79.10462122 -142.87585449 75.4666748 C-139.96385803 69.73329698 -137.06977839 63.99083006 -134.17362976 58.24943542 C-133.46364181 56.84260123 -132.75312055 55.43603604 -132.04206848 54.02973938 C-127.0888396 44.23305576 -122.2355199 34.39778147 -117.58587646 24.45220947 C-116.80758617 22.79652994 -116.00618008 21.15148893 -115.18032837 19.51901245 C-113.91848982 16.96896332 -113.91848982 16.96896332 -113.05282593 14.01248169 C-111.74923225 10.5739142 -110.67881203 8.5425005 -108 6 C-101.89470772 3.64829819 -94.95676779 3.89141269 -88.5078125 3.6484375 C-86.5590452 3.53665849 -84.61054257 3.4201755 -82.662323 3.29922485 C-77.53109523 2.99325239 -72.39876692 2.75075014 -67.26361084 2.52160645 C-62.09029016 2.27995745 -56.92044492 1.97960279 -51.75 1.68359375 C-43.27842046 1.20535236 -34.80582038 0.76661001 -26.33003426 0.36986351 C-22.30180696 0.17765209 -18.2783965 -0.0394539 -14.25531006 -0.32049561 C-13.14551694 -0.39721528 -13.14551694 -0.39721528 -12.01330376 -0.47548485 C-10.02879813 -0.61634537 -8.04487185 -0.76530309 -6.06100464 -0.91488647 C-3 -1 -3 -1 0 0 Z " fill="#21B7CC" transform="translate(757,125)"/>
<path d="M0 0 C3.30964747 3.08162057 5.72989944 6.36345832 8.21875 10.1328125 C8.62593262 10.74600845 9.03311523 11.35920441 9.45263672 11.99098206 C10.80668687 14.03244159 12.15383561 16.07833308 13.5 18.125 C15.45664523 21.09356433 17.41527929 24.06080891 19.375 27.02734375 C20.15321106 28.20672264 20.15321106 28.20672264 20.94714355 29.40992737 C24.50499589 34.78640628 28.12117899 40.1198335 31.7713623 45.434021 C34.384688 49.24098952 36.9824488 53.05846012 39.5793457 56.87664795 C40.85847202 58.74863232 42.14477197 60.6157353 43.43823242 62.47784424 C45.25915972 65.10165625 47.05374546 67.74175168 48.84375 70.38671875 C49.67326172 71.56132408 49.67326172 71.56132408 50.51953125 72.75965881 C54.11029419 78.14075298 54.11029419 78.14075298 53.62475586 81.92333984 C53.08858643 82.9386377 52.55241699 83.95393555 52 85 C51.27839578 86.5127814 50.55716117 88.02573914 49.83618164 89.53881836 C48.94814601 91.30782676 48.05587539 93.07471338 47.16015625 94.83984375 C46.67856552 95.79782364 46.19697479 96.75580353 45.70079041 97.74281311 C44.15849944 100.80964293 42.6109236 103.87376254 41.0625 106.9375 C39.05046014 110.92431373 37.04118775 114.91250335 35.03515625 118.90234375 C34.53555893 119.89599442 34.03596161 120.88964508 33.52122498 121.91340637 C29.03623394 130.86589137 24.71771661 139.89411217 20.41723633 148.9362793 C17.62228296 154.8075699 14.74327526 160.63273052 11.8125 166.4375 C11.33748047 167.38302734 10.86246094 168.32855469 10.37304688 169.30273438 C9.25066678 171.53615739 8.12639974 173.76860245 7 176 C0.57554476 176 -2.54004154 171.28426313 -7 167 C-8.02867187 166.08347656 -8.02867187 166.08347656 -9.078125 165.1484375 C-28.91797405 146.84093452 -38.96459077 117.36043327 -40.18359375 91.03515625 C-40.9257814 60.4347596 -30.23332242 31.76216289 -9.29980469 9.45019531 C-6.24961021 6.24982493 -3.1375354 3.11459182 0 0 Z " fill="#21B7CC" transform="translate(569,39)"/>
<path d="M0 0 C29.57008986 -0.88932601 58.34292189 10.98149066 79.69921875 31.03515625 C80.42238281 31.72480469 81.14554688 32.41445313 81.890625 33.125 C82.47972656 33.63933594 83.06882812 34.15367188 83.67578125 34.68359375 C96.42516794 46.28764547 105.41728902 63.97198405 110.890625 80.125 C110.890625 81.445 110.890625 82.765 110.890625 84.125 C97.40153962 85.13174217 83.91100367 86.11566464 70.41812515 87.07030869 C64.15318832 87.51428773 57.8890297 87.96617364 51.62597656 88.43603516 C45.58423038 88.88900333 39.54133146 89.32132438 33.49706268 89.73923492 C31.18880567 89.90250004 28.88106629 90.07325834 26.5739212 90.25154877 C23.34752189 90.49960312 20.12032609 90.72118864 16.89160156 90.93652344 C15.93350586 91.01635971 14.97541016 91.09619598 13.98828125 91.17845154 C7.51932264 91.5707484 7.51932264 91.5707484 4.44049072 89.3878479 C3.92903503 88.64110809 3.41757935 87.89436829 2.890625 87.125 C2.41298706 86.48164703 1.93534912 85.83829407 1.4432373 85.17544556 C0.99726196 84.49315887 0.55128662 83.81087219 0.09179688 83.10791016 C-0.42460358 82.3231279 -0.94100403 81.53834564 -1.47305298 80.7297821 C-2.02335175 79.88309464 -2.57365051 79.03640717 -3.140625 78.1640625 C-3.72532562 77.27326492 -4.31002625 76.38246735 -4.91244507 75.4646759 C-6.81599599 72.56275131 -8.71290679 69.65655728 -10.609375 66.75 C-13.22465451 62.75265524 -15.8425405 58.75702196 -18.4609375 54.76171875 C-19.11111847 53.7686824 -19.76129944 52.77564606 -20.43118286 51.7525177 C-24.41021198 45.6843219 -28.43268235 39.64856407 -32.5078125 33.64453125 C-32.98410095 32.9406427 -33.4603894 32.23675415 -33.95111084 31.51153564 C-36.61142095 27.57986431 -36.61142095 27.57986431 -39.29223633 23.66217041 C-40.48752804 21.92514313 -41.67062099 20.18039428 -42.8515625 18.43359375 C-43.5101123 17.47251709 -44.16866211 16.51144043 -44.84716797 15.52124023 C-45.26369629 14.73048096 -45.68022461 13.93972168 -46.109375 13.125 C-45.779375 12.135 -45.449375 11.145 -45.109375 10.125 C-42.74609049 8.95704472 -40.51521895 8.01268483 -38.046875 7.125 C-37.33313721 6.86372314 -36.61939941 6.60244629 -35.8840332 6.33325195 C-24.27672176 2.25638256 -12.23863086 0.7252522 0 0 Z " fill="#21B7CC" transform="translate(641.109375,11.875)"/>
</svg>
